             =!HD DESI ROCKER RELEASES!=/=DK Group HD Bluray Releases=

===================================================================================

             2 Fast 2 Furious(2003)Bluray Rip in[Hindi-Eng]By !!!dip

===================================================================================

Storyline:

Former cop Brian O'Conner who teams up with his ex-con pal Roman Pearce to transport a shipment of 'dirty' money for shady Miami-based import-export dealer Carter Verone, while actually working with undercover agent Monica Fuentes to bring Verone down. Written by rupekooner 

Cast:

Paul Walker................Brian O'Conner
Tyrese Gibson..............Roman Pearce (as Tyrese)
Eva Mendes.................Monica Fuentes
Cole Hauser................Carter Verone
Ludacris...................Tej (as Chris 'Ludacris' Bridges)
Thom Barry.................Agent Bilkins
James Remar................Agent Markham
Devon Aoki.................Suki
Amaury Nolasco.............Orange Julius
Michael Ealy...............Slap Jack
Jin Auyeung................Jimmy
Edward Finlay..............Agent Dunn
Mark Boone Junior..........Detective Whitworth
Mo Gallini.................Enrique (as Matt Gallini)
Roberto 'Sanz' Sanchez.....Roberto

Directors        :John Singleton
Writers          :Gary Scott Thompson (characters), Michael Brandt (story)
Stars            :Paul Walker, Tyrese Gibson and Cole Hauser
Format           :Color,MKV,Widescreen
Language         :Hindi-English
Release Date     :6 June 2003 (USA)
Run Time         :1H:47M:42S
Frame rate       :25.000 fps
Color            :Color
SUBTITLE         :no

Video Specifications:

Format: H.264/MPEG-4 AVC
Bitrate:448 kb/ps
Framerate:23.976 FPS

Release Title/Year/Language...:2 Fast 2 Furious(2003)Bluray Rip in[Hindi-Eng]By !!!dip
Genre.....................: Action | Crime | Thriller
Source....................: Bluray
Format....................: Matroska(MKV)
File size.................: 3.20 GiB
VIDEO Stream size.........: 2.94 GiB (92%)
Duration..................: 1H:47M:42S
Overall bit rate..........: 4 253 Kbps
Resolution................: 1280 x 528 pixels
Team......................: DK Group HD Bluray Releases/HD DESI ROCKER RELEAESEES


Audio Specifications:

Audio #1
Format                           : MPEG Audio
Format version                   : Version 1
Format profile                   : Layer 3
Mode                             : Joint stereo
Mode extension                   : MS Stereo
Muxing mode                      : Header stripping
Codec ID                         : A_MPEG/L3
Codec ID/Hint                    : MP3
Duration                         : 1h 47mn
Bit rate mode                    : Constant
Bit rate                         : 128 Kbps
Channel(s)                       : 2 channels
Sampling rate                    : 48.0 KHz
Compression mode                 : Lossy
Stream size                      : 98.6 MiB (3%)
Writing library                  : LAME3.96.1
Language                         : English

Audio #2
Format                           : MPEG Audio
Format version                   : Version 1
Format profile                   : Layer 2
Muxing mode                      : Header stripping
Codec ID                         : A_MPEG/L2
Codec ID/Hint                    : MP2
Duration                         : 1h 47mn
Bit rate mode                    : Constant
Bit rate                         : 128 Kbps
Channel(s)                       : 2 channels
Sampling rate                    : 44.1 KHz
Stream size                      : 98.6 MiB (3%)
Language                         : Hindi

SAMPLE IMAGE:
 
http://www.pix2links.com/images/09171848999575768879.jpg
 
http://www.pix2links.com/images/85741132579942964643.jpg
 
http://www.pix2links.com/images/16630307986704169030.jpg
 
http://www.pix2links.com/images/30610047965175585376.jpg
 
http://www.pix2links.com/images/91015420948213746624.jpg


SAMPLE VIDEO INCLUDED:

 